<?xml version="1.0" encoding="UTF-8" standalone="no"?>
<!-- Generator: Adobe Illustrator 23.0.2, SVG Export Plug-In . SVG Version: 6.00 Build 0)  -->

<svg
   version="1.1"
   x="0px"
   y="0px"
   viewBox="0 0 206.64827 96.616864"
   xml:space="preserve"
   id="svg256"
   sodipodi:docname="gato.svg"
   width="206.64825"
   height="96.616859"
   inkscape:version="1.1.2 (0a00cf5339, 2022-02-04)"
   xmlns:inkscape="http://www.inkscape.org/namespaces/inkscape"
   xmlns:sodipodi="http://sodipodi.sourceforge.net/DTD/sodipodi-0.dtd"
   xmlns="http://www.w3.org/2000/svg"
   xmlns:svg="http://www.w3.org/2000/svg"><defs
   id="defs260">
	
	
	
	
	
	
	
	
	
	
	
	
	
	
	
	
	
	
	
	
	

		
		
		
		
		
		
		
		
		
		
		
		
		
		
		
		
		
		
	</defs><sodipodi:namedview
   id="namedview258"
   pagecolor="#ffffff"
   bordercolor="#666666"
   borderopacity="1.0"
   inkscape:pageshadow="2"
   inkscape:pageopacity="0.0"
   inkscape:pagecheckerboard="0"
   showgrid="false"
   fit-margin-top="0"
   fit-margin-left="0"
   fit-margin-right="0"
   fit-margin-bottom="0"
   inkscape:zoom="5.5852074"
   inkscape:cx="112.35035"
   inkscape:cy="48.968638"
   inkscape:window-width="1862"
   inkscape:window-height="1016"
   inkscape:window-x="0"
   inkscape:window-y="0"
   inkscape:window-maximized="1"
   inkscape:current-layer="svg256" />
<style
   type="text/css"
   id="style2">
	.st0{fill:#FFFFFF;}
	.st1{fill:#FFFFFF;stroke:#031F43;stroke-width:2;stroke-linecap:round;stroke-linejoin:round;stroke-miterlimit:10;}
	.st2{fill:#A7CCE9;}
	.st3{fill:#347CE1;stroke:#231F20;stroke-width:2;stroke-linecap:round;stroke-linejoin:round;stroke-miterlimit:10;}
	.st4{fill:none;stroke:#031F43;stroke-width:2;stroke-linecap:round;stroke-linejoin:round;}
	.st5{fill:#E72A8B;}
	.st6{fill:none;stroke:#031F43;stroke-width:2;stroke-linecap:round;stroke-linejoin:round;stroke-miterlimit:10;}
	.st7{fill:#031F43;}
	.st8{fill:#4D4F51;stroke:#031F43;stroke-width:2;stroke-linecap:round;stroke-linejoin:round;stroke-miterlimit:10;}
	.st9{fill:#45D62F;stroke:#031F43;stroke-width:2;stroke-linecap:round;stroke-linejoin:round;}
	.st10{fill:#4D4F51;stroke:#031F43;stroke-width:2;stroke-miterlimit:10;}
	.st11{fill:#808080;}
	.st12{fill:#F3B63F;}
</style>
<path
   class="st0"
   d="m 77.967376,25.731288 c 0,0 31.890004,-15.63 56.780004,-12.96 24.89,2.67 33.33,15.02 35.8,21.19 2.47,6.17 2.88,24.89 -3.91,33.53 -6.79,8.64 -18.78,10.33 -28.75,10.82 -9.97,0.49 -21.48,1.63 -22.63,0.57 -1.14,-1.06 -2.86,-2.78 -2.86,-2.78 0,0 -15.770004,1.63 -21.650004,0.41 -5.88,-1.23 -14.95,-1.47 -14.95,-1.47 0,0 -18.62,11.27 -30.96,11.27 -12.33,0 -27.45,-1.47 -35.2899999,-5.15 -7.84,-3.68 -8.17,-7.84 -6.62,-9.31 1.55,-1.47 3.51,-1.63 15.2699999,0.16 11.76,1.79 28.78,-1.73 28.78,-1.73 l -8.43,-4.56 c 0,0 -26.88,-0.65 -32.6799999,-4.98 -5.8,-4.33 -5.31,-8.9 -2.29,-10.54 3.02,-1.63 11.1899999,0.49 18.7899999,1.06 7.6,0.57 14.62,0.98 14.62,0.98 z"
   id="path4" />





























<path
   class="st1"
   d="m 171.68738,36.521288 c 0,0 12.96,3.67 20.46,22.13 3.08,7.59 1.36,16.5 -2.7,24.73 -4.05,8.23 -2.13,10.63 1.89,12.01 4.02,1.38 10.72,-3.66 13.23,-16.16 2.51,-12.5 0.95,-28.49 -8.06,-40.91 -6.9,-9.52 -21.72,-16.67 -37.02,-17.95"
   id="path90" /><path
   class="st6"
   d="m 52.687376,67.841288 c 0,0 -11.05,6.21 -28.11,4.9 -13.31,-1.02 -19.3499999,-4.74 -21.8599999,-1.21 -2.5,3.52 1.05,8.35 14.3199999,11.63 10.67,2.63 21.08,4.78 35.81,0.9 12.24,-3.22 22.11,-9.32 22.11,-9.32 0,0 25.670004,3.21 37.230004,1.37"
   id="path142" /><path
   class="st6"
   d="m 133.26738,43.131288 c -0.49,0.37 -7.24,0.58 -7.68,10.58 -0.44,10 3.59,15.52 3.59,15.52 0,0 -15.63,1.57 -16.2,6.5 -0.56,4.93 11.71,3.24 25.88,2.55 15.64,-0.76 21.1,-3.28 26.67,-8.97 2.74,-2.79 11.01,-19.07 5.12,-33.44 -5.89,-14.37 -18.87,-22.17 -37.18,-23.2 -25.12,-1.41 -49.300004,10.24 -52.280004,11.42 -2.98,1.18 -31.65,27.19 -41.41,27.92 -9.76,0.73 -25.74,-1.88 -30.3399999,-2.65 -7.93,-1.32 -9.56,5.6 -7.72,8.2 1.84,2.6 12.3199999,8.95 36.6499999,7.98 l 8.06,4.45"
   id="path144" /><path
   class="st6"
   d="m 94.717376,19.311288 c 0,0 15.500004,6.37 17.420004,20.35"
   id="path146" /><path
   class="st6"
   d="m 105.62738,15.571288 c 0,0 14.38,5.78 16.29,19.76"
   id="path148" /><path
   class="st6"
   d="m 116.73738,14.141288 c 0,0 12.73,4.24 14.65,18.22"
   id="path150" /><path
   class="st10"
   d="m 52.15738,18.39128 c 1.34,0.27 2.41,-1.11 1.85,-2.35 -2.33,-5.13 -6.94,-14.26 -10.55,-14.99 -5.04,-1.03 -5.28,12.7 -5.28,12.7 0,0 0.62,5.15 6.94,4.42 2.92,-0.36 5.3,-0.14 7.04,0.22 z"
   id="path152"
   inkscape:transform-center-x="11.219019"
   inkscape:transform-center-y="-26.242228" /><path
   class="st1"
   d="m 30.74738,34.16128 c 0.37,-3.97 3.59,-27.08 28.39,-24.69 19.63,1.89 25.87,16.78 25.97,28.22 0.07,7.59 -2.87,12.04 -7.35,14.91 -9.53,6.1 -18.91,6.79 -29.05,4.9 -10.25,-1.92 -19.32,-8.63 -17.96,-23.34 z"
   id="path154"
   inkscape:transform-center-x="-0.4727235"
   inkscape:transform-center-y="-2.0883557" /><path
   class="st11"
   d="m 37.75738,17.92128 c 0,0 1.01,6.19 10.4,7.77 9.39,1.58 13.72,0.66 20.35,6.23 10.36,8.71 15.63,3.84 15.63,3.84 0,0 -0.32,-18.58 -18.45,-24.19 -10.98,-3.4 -18.55,-0.2 -20.38,0.62 -4.94,2.23 -7.55,5.73 -7.55,5.73 z"
   id="path156"
   inkscape:transform-center-x="-3.5599533"
   inkscape:transform-center-y="-12.37441" /><path
   class="st7"
   d="m 46.51738,41.19128 2.77,-2.49 c 0.57,-0.54 0.29,-1.49 -0.47,-1.65 l -3.02,-0.62 c -0.83,-0.17 -1.47,0.74 -1.02,1.46 z"
   id="path158"
   inkscape:transform-center-x="10.278078"
   inkscape:transform-center-y="2.8479038" /><path
   class="st6"
   d="m 68.71738,37.61128 c 0,0 -7.49,-2.37 -11.64,0.25"
   id="path160"
   inkscape:transform-center-x="-5.5099535"
   inkscape:transform-center-y="1.2917763" /><path
   class="st6"
   d="m 63.39738,41.81128 c 0,0 -3.39,-1.71 -7.11,-0.42"
   id="path162"
   inkscape:transform-center-x="-2.4549532"
   inkscape:transform-center-y="5.4074797" /><path
   class="st6"
   d="m 28.23738,29.52128 c 0,0 7.51,0.88 11.51,5.18"
   id="path164"
   inkscape:transform-center-x="23.395049"
   inkscape:transform-center-y="-3.8417287" /><path
   class="st6"
   d="m 32.55738,35.09128 c 0,0 3.69,0.2 6.7,2.57"
   id="path166"
   inkscape:transform-center-x="21.480049"
   inkscape:transform-center-y="0.42327162" /><path
   class="st6"
   d="m 59.79738,15.09128 c 0,0 -3.51,1.83 -4.72,5.72"
   id="path168"
   inkscape:transform-center-x="-0.049953051"
   inkscape:transform-center-y="-18.00173" /><path
   class="st6"
   d="m 54.92738,13.73128 c 0,0 -3.17,2.38 -3.74,6.41"
   id="path170"
   inkscape:transform-center-x="4.3300473"
   inkscape:transform-center-y="-19.01673" /><path
   class="st6"
   d="m 49.58738,12.74128 c 0,0 -2.81,2.79 -2.81,6.87"
   id="path172"
   inkscape:transform-center-x="9.2050476"
   inkscape:transform-center-y="-19.77673" /><path
   class="st10"
   d="m 75.41738,27.24128 c 1.04,0.88 2.65,0.17 2.75,-1.19 0.39,-5.62 0.69,-15.84 -2.13,-18.21 -3.94,-3.3 -10.69,8.65 -10.69,8.65 0,0 -1.91,4.83 3.99,7.19 2.74,1.09 4.72,2.42 6.08,3.56 z"
   id="path174"
   inkscape:transform-center-x="-14.346356"
   inkscape:transform-center-y="-18.50579" /><path
   class="st6"
   d="m 73.36738,12.95128 c 0,0 1.61,3.42 0.9,8.1"
   id="path176"
   inkscape:transform-center-x="-16.520363"
   inkscape:transform-center-y="-18.95173" /><path
   class="st6"
   d="m 50.073738,45.197823 c 0,0 -1.859917,4.124263 -5.053589,1.387607"
   id="path178"
   inkscape:transform-center-x="3.1264296"
   inkscape:transform-center-y="7.7559948" /><circle
   class="st7"
   cx="53.777386"
   cy="34.741257"
   r="1.53"
   id="circle182"
   inkscape:transform-center-x="3.6100415"
   inkscape:transform-center-y="-1.2117518" /><circle
   class="st7"
   cx="43.157391"
   cy="31.981306"
   r="1.53"
   id="circle184"
   inkscape:transform-center-x="14.230037"
   inkscape:transform-center-y="-3.9717026" /><path
   class="st6"
   d="m 74.957376,74.741288 c 0,0 7.78,-4 11.14,-11.54"
   id="path190" />









</svg>
