<svg width="1493" height="260" viewBox="0 0 1493 260" fill="none" xmlns="http://www.w3.org/2000/svg">
<path d="M1 170.406V259H1062V157.5C1050.17 156.095 1024.5 153.328 1016.5 153.5C960.992 154.858 932.619 152.483 827.51 170.406C774.427 179.457 683.85 207.908 623.44 213C567.71 217.697 459.233 205.5 437.016 200L435.596 199.649C387.697 187.789 277.748 160.565 208.773 154.113C153.775 148.968 81.9705 143.93 1 170.406Z" fill="#A7CCE9" stroke="#A7CCE9"/>
<path d="M1058 41C1058 18.3563 1076.36 0 1099 0H1492V259H1099C1076.36 259 1058 240.644 1058 218V41Z" fill="#F1E7B6"/>
<path d="M1199.5 194.5C1199.5 194.5 1134.5 169 1058 158V259H1088.58H1492V162.802C1484.79 162.802 1473.79 168.232 1466.8 170.741C1459.8 173.249 1451.86 176.343 1446.6 178.857C1434.11 185.143 1400.84 196.425 1379.53 204.314C1367.9 208.619 1308.73 219.5 1295 219.5C1270.5 219.5 1221 203.667 1199.5 194.5Z" fill="#D9D0A5" stroke="#D9D0A5"/>
</svg>
