<?xml version="1.0" encoding="UTF-8" standalone="no"?>
<!-- Generator: Adobe Illustrator 23.0.2, SVG Export Plug-In . SVG Version: 6.00 Build 0)  -->

<svg
   version="1.1"
   x="0px"
   y="0px"
   viewBox="0 0 376.05138 398.3206"
   xml:space="preserve"
   id="svg256"
   sodipodi:docname="happy.svg"
   inkscape:version="1.1.2 (0a00cf5339, 2022-02-04)"
   width="376.05136"
   height="398.32059"
   xmlns:inkscape="http://www.inkscape.org/namespaces/inkscape"
   xmlns:sodipodi="http://sodipodi.sourceforge.net/DTD/sodipodi-0.dtd"
   xmlns="http://www.w3.org/2000/svg"
   xmlns:svg="http://www.w3.org/2000/svg"><defs
   id="defs260">
	
	
	
	
	
	
	
	
	
	
	
	
	
	
	
	
	
	
	
	
	

		
		
		
		
		
		
		
		
		
		
		
		
		
		
		
		
		
		
	
	
	
	
	
	
	
	
	
	
		
	
	
	
	
	

	
	
	
	
	
	
	
	
	
	
</defs><sodipodi:namedview
   id="namedview258"
   pagecolor="#ffffff"
   bordercolor="#666666"
   borderopacity="1.0"
   inkscape:pageshadow="2"
   inkscape:pageopacity="0.0"
   inkscape:pagecheckerboard="0"
   showgrid="false"
   inkscape:zoom="1.3272825"
   inkscape:cx="132.60176"
   inkscape:cy="184.21097"
   inkscape:window-width="1862"
   inkscape:window-height="1016"
   inkscape:window-x="0"
   inkscape:window-y="0"
   inkscape:window-maximized="1"
   inkscape:current-layer="g5142"
   fit-margin-top="0"
   fit-margin-left="0"
   fit-margin-right="0"
   fit-margin-bottom="0" />
<style
   type="text/css"
   id="style2">
	.st0{fill:#FFFFFF;}
	.st1{fill:#FFFFFF;stroke:#031F43;stroke-width:2;stroke-linecap:round;stroke-linejoin:round;stroke-miterlimit:10;}
	.st2{fill:#A7CCE9;}
	.st3{fill:#347CE1;stroke:#231F20;stroke-width:2;stroke-linecap:round;stroke-linejoin:round;stroke-miterlimit:10;}
	.st4{fill:none;stroke:#031F43;stroke-width:2;stroke-linecap:round;stroke-linejoin:round;}
	.st5{fill:#E72A8B;}
	.st6{fill:none;stroke:#031F43;stroke-width:2;stroke-linecap:round;stroke-linejoin:round;stroke-miterlimit:10;}
	.st7{fill:#031F43;}
	.st8{fill:#4D4F51;stroke:#031F43;stroke-width:2;stroke-linecap:round;stroke-linejoin:round;stroke-miterlimit:10;}
	.st9{fill:#45D62F;stroke:#031F43;stroke-width:2;stroke-linecap:round;stroke-linejoin:round;}
	.st10{fill:#4D4F51;stroke:#031F43;stroke-width:2;stroke-miterlimit:10;}
	.st11{fill:#808080;}
	.st12{fill:#F3B63F;}
</style>
<path
   class="st0"
   d="m 143.61668,327.43501 c 0,0 31.89,-15.63 56.78,-12.96 24.89,2.67 33.33,15.02 35.8,21.19 2.47,6.17 2.88,24.89 -3.91,33.53 -6.79,8.64 -18.78,10.33 -28.75,10.82 -9.97,0.49 -21.48,1.63 -22.63,0.57 -1.14,-1.06 -2.86,-2.78 -2.86,-2.78 0,0 -15.77,1.63 -21.65,0.41 -5.88,-1.23 -14.95,-1.47 -14.95,-1.47 0,0 -18.62,11.27 -30.96,11.27 -12.330005,0 -27.450005,-1.47 -35.290005,-5.15 -7.84,-3.68 -8.17,-7.84 -6.62,-9.31 1.55,-1.47 3.51,-1.63 15.27,0.16 11.76,1.79 28.780005,-1.73 28.780005,-1.73 l -8.43,-4.56 c 0,0 -26.880005,-0.65 -32.680005,-4.98 -5.8,-4.33 -5.31,-8.9 -2.29,-10.54 3.02,-1.63 11.19,0.49 18.79,1.06 7.6,0.57 14.620005,0.98 14.620005,0.98 z"
   id="path4" />
<path
   class="st1"
   d="m 168.71668,104.49501 c 0,0 0.37,19.89 -0.56,28.07 -0.93,8.18 -0.19,28.07 -0.37,29.93 -0.19,1.86 -9.3,19.71 -12.27,21.01 -2.97,1.3 -8.92,-3.35 -10.22,-18.4 -1.3,-15.06 -0.37,-51.12 -0.37,-51.12 z"
   id="path6" />
<path
   class="st2"
   d="m 91.746675,74.495013 c 0,0 32.437565,-0.51009 35.037565,-0.95009 2.6,-0.43 6.91244,-0.25991 20.35244,4.36009 13.45,4.63 30.94,22.699997 30.94,22.699997 0,0 -8.96,13.01 -16.63,18.36 -7.66,5.35 -17.78,10.99 -17.78,10.99 l -76.190005,19.37 -8.39,-21.11 c 0,0 -11.28,-1.45 -20.39,-6.94 -9.11,-5.49 -17.64,-6.22 -17.78,-6.8 -0.14,-0.58 4.26,-13.39 12.92,-22.699997 6.1,-6.55 12.07,-8.95 18.43,-11.12 6.36,-2.17 10.06,-2.27 15.45,-3.43 10.58,-2.28 24.03,-2.73 24.03,-2.73 z"
   id="path8"
   sodipodi:nodetypes="ccccccccsscscc" />
<path
   class="st3"
   d="m 66.526675,129.57501 c 0,0 20.21,2.75 40.940005,0.22 20.73,-2.53 40.71,-9.61 40.71,-9.61 0,0 -0.25,45.76 -1.26,54.86 -1.01,9.1 -2.16,15.06 -1.73,23.61 0.43,8.55 -0.86,11.76 4.49,17.96 5.34,6.2 6.84,10.26 6.84,13.47 0,3.21 0.21,5.77 0.21,5.77 0,0 19.45,-1.28 41.9,0.21 22.45,1.49 36.34,-0.64 44.89,9.19 8.55,9.83 4.92,31 2.14,35.49 -2.78,4.49 -9.36,7.9 -22.71,12.39 -25.03,8.42 -63.73,13.49 -63.73,13.49 l -12.97,-34.01 c 0,0 -35.27,22.02 -52.380005,19.45 -17.1,-2.57 -33.14,-12.19 -36.34,-16.67 -3.21,-4.49 -11.33,-10.69 -11.33,-10.69 l -5.13,3.63 c 0,0 2.14,-10.9 1.71,-12.19 -0.43,-1.28 -3.21,-7.91 -14.96,-7.91 -11.76,0 -20.0599999,6.93 -20.0599999,6.93 l 0.39,6.84 c 0,0 -6.42,-3.07 -7.06,-8.42 -0.64000004,-5.34 2.57,-15.61 4.7,-25.44 2.13,-9.83 6.1999999,-33.35 6.8399999,-39.98 0.64,-6.63 1.92,-20.52 5.56,-26.08 3.63,-5.56 16.67,-14.32 30.36,-9.41 13.68,4.92 16.46,27.79 16.46,27.79 z"
   id="path10" />
<path
   class="st4"
   d="m 146.24668,272.63501 c 0,0 7.85,-7.95 25.26,-14.68 17.41,-6.73 21.83,-7.43 21.83,-7.43"
   id="path12" />
<path
   class="st4"
   d="m 46.196675,264.72501 c 0,0 4.8,-4.45 5.03,-7.7 0.23,-3.25 -0.7,-6.5 -0.7,-6.5 0,0 5.8,-26.01 7.2,-31.58 1.39,-5.57 1.63,-9.98 1.63,-9.98"
   id="path14" />
<path
   class="st4"
   d="m 156.72668,235.86501 c 0,0 -2.34,1.78 -10.23,-2.54 -7.89,-4.32 -14.44,-5.66 -14.44,-5.66"
   id="path16" />
<path
   class="st4"
   d="m 50.416675,250.06501 c 0,0 -5.44,-9.89 -16.14,-12.29 -10.7,-2.4 -17.4,-0.64 -20.6,0.64"
   id="path18" />
<path
   class="st4"
   d="m 193.51668,250.11501 c 0,0 -11.98,-1.45 -21.04,0.37 -9.06,1.81 -44.41,2.27 -54.61,3.85 -10.2,1.59 -19.710005,0.91 -25.830005,-4.99 -6.12,-5.89 -4.08,-9.06 -9.97,-15.86 -5.89,-6.8 -12.46,-20.62 -14.05,-26.74 0,0 -2,-19.24 -3,-26.25"
   id="path20" />
<path
   class="st1"
   d="m 88.776675,312.89501 c 0,0 17.030005,-1.89 33.510005,-3.24 16.49,-1.35 35.64,-1.67 38.11,-3.8 3.56,-3.06 1.94,-12.9 -1.92,-20.92 -3.86,-8.02 -9.97,-14.2 -9.97,-14.2 0,0 -34.06,15.95 -45.14,17.3 -11.080005,1.35 -17.840005,-0.54 -17.840005,-0.54 0,0 -6.49,3.24 -5.41,7.03 1.09,3.78 8.66,18.37 8.66,18.37 z"
   id="path22" />
<path
   class="st5"
   d="m 86.226675,294.36501 c 0.36,1.07 7.7,2.51 8.23,8.41 0.53,5.9 -4.48,14.32 -4.48,14.32 0,0 -12.89,0 -17.9,0.89 -5.01,0.9 -22.02,6.89 -25.42,7.97 -3.4,1.08 -10.04,7.7 -14.52,4.84 -4.48,-2.86 -15.85,-12.72 -6.9,-25.43 8.95,-12.71 17.13,-12.08 24.47,-16.56 7.34,-4.48 12.71,-11.81 15.21,-12.17 2.51,-0.36 21.84,7.52 23.63,10.2 1.8,2.69 -2.32,7.53 -2.32,7.53 z"
   id="path24" />
<path
   class="st6"
   d="m 69.866675,279.28501 c 0,0 -8.7,9.26 -16.64,13.8 -7.94,4.54 -14.93,8.13 -17.01,10.21"
   id="path26" />
<path
   class="st6"
   d="m 79.256675,301.04501 c 0,0 5.12,4.41 1.14,12.81"
   id="path28" />
<path
   class="st6"
   d="m 72.006675,302.18501 c 0,0 5.12,4.41 1.14,12.81"
   id="path30" />
<path
   class="st6"
   d="m 64.746675,304.32501 c 0,0 5.12,4.41 1.14,12.81"
   id="path32" />
<path
   class="st1"
   d="m 42.336675,257.03501 -6.76,65.76 -22.29,-1.79 -5.7899999,-67 c 0,0 4.0099999,-9.62 22.8799999,-6.57 13.01,2.11 11.96,9.6 11.96,9.6 z"
   id="path34" />
<path
   class="st5"
   d="m 38.996675,330.08501 c 0,0 -1,-17.1 -12.66,-17.41 -11.66,-0.31 -14.27,5.71 -15.02,11.08 -0.75,5.37 -5.4999999,33.72 -7.8499999,43.58 -2.35,9.86 0.37,23.53 12.6299999,26.03 12.26,2.5 18.37,-3.84 21.56,-21.13 3.16,-17.28 1.34,-42.15 1.34,-42.15 z"
   id="path36" />
<path
   class="st6"
   d="m 30.816675,334.37501 c 0,0 -6.66,-6.45 -14.75,-1.63"
   id="path38" />
<path
   class="st6"
   d="m 30.346675,341.79501 c 0,0 -6.66,-6.45 -14.75,-1.63"
   id="path40" />
<path
   class="st6"
   d="m 29.556675,349.86501 c 0,0 -6.66,-6.45 -14.75,-1.63"
   id="path42" />
<path
   class="st6"
   d="m 36.186675,377.80501 c 0,0 -2.46,11.09 -17.67,10.19 -15.1999999,-0.9 -15.5399999,-14.96 -15.5399999,-14.96"
   id="path44" />
<path
   class="st3"
   d="m 62.886675,78.015013 c 0,0 4.69,4.9 8.52,20.66 3.83,15.759997 4.69,24.289997 4.69,24.289997 l -11.93,2.13 c 0,0 -2.13,-18.32 -5.33,-28.329997 -3.2,-10.01 -7.03,-15.98 -7.03,-15.98 z"
   id="path46" />
<path
   class="st3"
   d="m 135.18668,74.455013 c 0,0 4.27,2.66 8.1,18.43 3.83,15.759997 4.69,24.289997 4.69,24.289997 l -11.93,2.13 c 0,0 -2.13,-18.32 -5.33,-28.329997 -3.2,-10.01 -7.18886,-17.09772 -7.18886,-17.09772 z"
   id="path48"
   sodipodi:nodetypes="ccccscc" />
<path
   class="st4"
   d="m 78.946675,147.60501 c 0,0 16.02,0.24 30.130005,-1.43 10.46,-1.24 30.85,-5.26 30.85,-5.26 0,0 -0.24,30.37 -1.67,36.59 -1.43,6.22 -4.54,10.52 -10.04,11.24 -5.5,0.72 -45.400005,3.15 -48.550005,0 -4.31,-4.31 -0.72,-41.14 -0.72,-41.14 z"
   id="path50" />
<circle
   class="st1"
   cx="74.536682"
   cy="136.955"
   r="3.74"
   id="circle52" />
<circle
   class="st1"
   cx="141.85667"
   cy="129.38503"
   r="3.74"
   id="circle54" />
<path
   class="st7"
   d="m 133.91668,15.295013 c 0,0 17.84,15.51 9.45,31.83 -11.47,22.31 -7.5855,26.33708 -7.5855,26.33708 0,0 1.66306,0.1807 -12.25336,0.4152 -6.98,-0.5 -18.78114,2.23772 -18.78114,2.23772 0,0 0.02,-4.33 5.41,-5.21 5.78,-0.94 9.57,-1.87 13.24,-7.57 11.14,-17.33 10.52,-48.04 10.52,-48.04 z"
   id="path56"
   sodipodi:nodetypes="cccccccc" /><path
   class="st0"
   d="m 93.566675,42.825013 c 0,0 0.82,-17.63 10.270005,-21.83 9.46,-4.2 28.02,-0.93 29.42,8.64 1.4,9.57 -3.26,25.8 -6.07,31.29 -5.25,10.27 -14.5,10.16 -14.5,10.16 0,0 -0.33,7.12 -2.31,8.99 -1.98,1.87 -5.49,4.55 -11.560005,3.5 -6.07,-1.05 -9.57,-3.39 -10.04,-6.77 -0.47,-3.38 1.83,-18.47 1.15,-19.8 -0.68,-1.33 -7.34,-4.71 -6.28,-10.2 1.05,-5.49 2.66,-6.99 5.65,-7.05 2.99,-0.07 4.16,2.74 4.16,2.74 z"
   id="path58" /><path
   class="st7"
   d="m 94.826675,34.935013 c 1.47,-5.58 8.620005,-9.43 14.050005,-7.5 2.13,0.76 4.48,1.97 6.95,3.86 9.88,7.57 24.07,4.09 24.07,4.09 0,0 3.98,-9.05 -1.81,-22.06 -6.53,-14.6800001 -41.048535,-17.6112201 -54.328535,-6.8912201 -14.19,11.4500001 -15.37938,29.1055501 -24.22126,44.3445601 -9.90031,26.05786 -6.26248,51.135347 -6.26248,51.135347 0,0 5.43228,8.05867 16.50541,10.26526 10.93767,0.44182 16.13816,-15.642577 16.13816,-15.642577 l 4.1387,-40.05137 c 0,0 -4.96,-4 -5.6,-8.41 -1.01,-6.96 2.47,-8.21 3.97,-8.29 1.53,-0.08 4.92,3.66 4.92,3.66 z"
   id="path60"
   sodipodi:nodetypes="cccccccccccsccc" /><path
   class="st6"
   d="m 94.016675,44.865013 c 0,0 -0.77,-4.72 -4.73,-5.13 -3.95,-0.41 -6.52,5.15 -5.13,9.11 0.99,2.83 3.57,5.16 4.96,6.27 0.57,0.45 0.87,1.16 0.81,1.88 l -1.39,15.05 c -0.45,4.86 2.65,9.36 7.36,10.61 1.2,0.32 2.52,0.58 3.95,0.74 1.020005,0.11 2.070005,0.14 3.090005,0.12 4.68,-0.12 8.6,-3.59 9.45,-8.2 v 0 c 0.25,-1.36 1.69,-3.46 0.31,-3.29 -10.07,1.23 -13.030005,-5.48 -12.930005,-5.77"
   id="path62" /><path
   class="st6"
   d="m 118.73668,47.375013 c -0.19,2.23 -0.19,6.69 -0.19,6.69 0,0 -3.64,0.91 -5.36,-0.69"
   id="path64" /><path
   class="st6"
   d="m 107.29668,57.645013 c 2.73861,3.01641 6.21879,3.96228 10.3,3.23 0,0 -2.13,4.45 -6.77,3.05 -4.57,-1.38 -3.53,-6.28 -3.53,-6.28 z"
   id="path70"
   sodipodi:nodetypes="cccc" />
<path
   class="st1"
   d="m 67.996675,201.26501 c 0,0 17.92,5.6 19.69,9.36 1.77,3.76 3.31,9.17 5.19,10.72 1.88,1.55 11.710005,5.3 14.800005,6.41 3.09,1.1 7.4,-0.55 11.27,-1.66 3.87,-1.1 4.97,-3.98 5.86,-6.08 0.89,-2.1 3.76,-7.4 2.32,-8.51 -1.44,-1.1 -3.65,-0.55 -4.97,1.22 -1.33,1.77 -5.86,4.86 -7.95,5.3 -2.09,0.44 -7.18,-4.09 -9.94,-7.29 -2.76,-3.2 -4.420005,-4.31 -4.420005,-4.31 l 0.630005,-7.32 c 0,0 2.99,1.3 5.38,2.69 2.39,1.39 6.07,1.11 7.57,-1.89 1.07,-2.14 -1.89,-2.89 -4.98,-5.48 -3.09,-2.59 -6.68,-6.18 -9.170005,-7.47 -2.49,-1.3 -7.07,1.49 -8.87,1.49 -1.8,0 -9.93,-2.36 -9.93,-2.36 0,0 -6.02,-7.49 -6.96,-10.43 -0.94,-2.94 -3.75,-15.78 -5.62,-22.6 -1.87,-6.82 -8.82,-24.82 -8.82,-24.82 l -31.04,-11.56 c 0,0 6.96,29.29 9.9,34.51 0,0 19.23,0.06 24.04,19.06 2.14,8.4 6.02,31.02 6.02,31.02 z"
   id="path78" />
<path
   class="st6"
   d="m 93.216675,214.81501 c 0,0 10.830005,11.38 14.470005,12.93"
   id="path80" />

<path
   class="st1"
   d="m 237.33668,338.22501 c 0,0 12.96,3.67 20.46,22.13 3.08,7.59 1.36,16.5 -2.7,24.73 -4.05,8.23 -2.13,10.63 1.89,12.01 4.02,1.38 10.72,-3.66 13.23,-16.16 2.51,-12.5 0.95,-28.49 -8.06,-40.91 -6.9,-9.52 -21.72,-16.67 -37.02,-17.95"
   id="path90" /><path
   class="st6"
   d="m 118.33668,369.54501 c 0,0 -11.05,6.21 -28.110005,4.9 -13.31,-1.02 -19.35,-4.74 -21.86,-1.21 -2.5,3.52 1.05,8.35 14.32,11.63 10.67,2.63 21.080005,4.78 35.810005,0.9 12.24,-3.22 22.11,-9.32 22.11,-9.32 0,0 25.67,3.21 37.23,1.37"
   id="path142" /><path
   class="st6"
   d="m 198.91668,344.83501 c -0.49,0.37 -7.24,0.58 -7.68,10.58 -0.44,10 3.59,15.52 3.59,15.52 0,0 -15.63,1.57 -16.2,6.5 -0.56,4.93 11.71,3.24 25.88,2.55 15.64,-0.76 21.1,-3.28 26.67,-8.97 2.74,-2.79 11.01,-19.07 5.12,-33.44 -5.89,-14.37 -18.87,-22.17 -37.18,-23.2 -25.12,-1.41 -49.3,10.24 -52.28,11.42 -2.98,1.18 -31.65,27.19 -41.41,27.92 -9.760005,0.73 -25.740005,-1.88 -30.340005,-2.65 -7.93,-1.32 -9.56,5.6 -7.72,8.2 1.84,2.6 12.32,8.95 36.650005,7.98 l 8.06,4.45"
   id="path144" /><path
   class="st6"
   d="m 160.36668,321.01501 c 0,0 15.5,6.37 17.42,20.35"
   id="path146" /><path
   class="st6"
   d="m 171.27668,317.27501 c 0,0 14.38,5.78 16.29,19.76"
   id="path148" /><path
   class="st6"
   d="m 182.38668,315.84501 c 0,0 12.73,4.24 14.65,18.22"
   id="path150" /><path
   class="st10"
   d="m 117.80668,320.09501 c 1.34,0.27 2.41,-1.11 1.85,-2.35 -2.33,-5.13 -6.94,-14.26 -10.55,-14.99 -5.04,-1.03 -5.28,12.7 -5.28,12.7 0,0 0.62,5.15 6.94,4.42 2.92,-0.36 5.3,-0.14 7.04,0.22 z"
   id="path152" /><path
   class="st1"
   d="m 96.396675,335.86501 c 0.37,-3.97 3.59,-27.08 28.390005,-24.69 19.63,1.89 25.87,16.78 25.97,28.22 0.07,7.59 -2.87,12.04 -7.35,14.91 -9.53,6.1 -18.91,6.79 -29.05,4.9 -10.25,-1.92 -19.320005,-8.63 -17.960005,-23.34 z"
   id="path154" /><path
   class="st11"
   d="m 103.40668,319.62501 c 0,0 1.01,6.19 10.4,7.77 9.39,1.58 13.72,0.66 20.35,6.23 10.36,8.71 15.63,3.84 15.63,3.84 0,0 -0.32,-18.58 -18.45,-24.19 -10.98,-3.4 -18.55,-0.2 -20.38,0.62 -4.94,2.23 -7.55,5.73 -7.55,5.73 z"
   id="path156" /><path
   class="st7"
   d="m 112.16668,342.89501 2.77,-2.49 c 0.57,-0.54 0.29,-1.49 -0.47,-1.65 l -3.02,-0.62 c -0.83,-0.17 -1.47,0.74 -1.02,1.46 z"
   id="path158" /><path
   class="st6"
   d="m 134.36668,339.31501 c 0,0 -7.49,-2.37 -11.64,0.25"
   id="path160" /><path
   class="st6"
   d="m 129.04668,343.51501 c 0,0 -3.39,-1.71 -7.11,-0.42"
   id="path162" /><path
   class="st6"
   d="m 93.886675,331.22501 c 0,0 7.510005,0.88 11.510005,5.18"
   id="path164" /><path
   class="st6"
   d="m 98.206675,336.79501 c 0,0 3.690005,0.2 6.700005,2.57"
   id="path166" /><path
   class="st6"
   d="m 125.44668,316.79501 c 0,0 -3.51,1.83 -4.72,5.72"
   id="path168" /><path
   class="st6"
   d="m 120.57668,315.43501 c 0,0 -3.17,2.38 -3.74,6.41"
   id="path170" /><path
   class="st6"
   d="m 115.23668,314.44501 c 0,0 -2.81,2.79 -2.81,6.87"
   id="path172" /><path
   class="st10"
   d="m 141.06668,328.94501 c 1.04,0.88 2.65,0.17 2.75,-1.19 0.39,-5.62 0.69,-15.84 -2.13,-18.21 -3.94,-3.3 -10.69,8.65 -10.69,8.65 0,0 -1.91,4.83 3.99,7.19 2.74,1.09 4.72,2.42 6.08,3.56 z"
   id="path174" /><path
   class="st6"
   d="m 139.01668,314.65501 c 0,0 1.61,3.42 0.9,8.1"
   id="path176" /><path
   class="st6"
   d="m 114.97884,344.85853 c 0,0 -1.54,2.84167 -4.03,0.99172"
   id="path180" /><circle
   class="st7"
   cx="119.42668"
   cy="336.44498"
   r="1.53"
   id="circle182" /><circle
   class="st7"
   cx="108.80669"
   cy="333.68503"
   r="1.53"
   id="circle184" /><path
   class="st6"
   d="m 140.60668,376.44501 c 0,0 7.78,-4 11.14,-11.54"
   id="path190" />
<path
   class="st0"
   d="m 165.82668,151.12501 c 0,0 -0.78,-3.88 -2.23,-3.49 -1.45,0.39 -1.74,2.71 -4.07,4.65 -2.33,1.94 -6.11,4.65 -7.75,7.85 -1.65,3.2 -3.3,5.91 -2.91,9.98 0.39,4.07 -0.97,8.24 -1.84,10.95 -0.87,2.71 -4.26,6.49 -2.33,10.66 1.94,4.17 5.52,8.82 9.01,9.6 3.49,0.78 9.5,-3.2 11.53,-6.11 2.03,-2.91 4.94,-5.91 5.23,-9.01 0.29,-3.1 0.78,-6.49 0.78,-6.49 0,0 2.71,-0.87 4.07,-3.1 1.36,-2.23 2.13,-5.62 2.23,-6.4 0.1,-0.78 2.04,-1.65 2.33,-3.97 0.29,-2.32 -2.62,-3.88 -2.62,-3.88 0,0 1.94,-2.33 1.45,-4.17 -0.48,-1.84 -4.46,-2.91 -4.46,-2.91 0,0 4.09,-1.08 4.77,-3.7 0.68,-2.62 0.56,-5.32 -1.47,-5.32 -2.03,0 -3.59,-0.1 -5.43,0.97 -1.84,1.08 -6.29,3.89 -6.29,3.89 z"
   id="path210" />
<path
   class="st6"
   d="m 170.60668,179.30501 c 0,0 -0.31,9.07 -3.68,13.5 -3.37,4.43 -8.66,9.14 -12.7,8.76 -4.04,-0.38 -9.53,-5.97 -10.1,-11.16 -0.58,-5.2 4.14,-11.74 4.91,-13.28 0.77,-1.54 -0.48,-7.41 0.19,-12.41 0.67,-5 3.66,-7.02 6.45,-9.05 2.79,-2.02 4.52,-4.43 5.1,-5.87 0.58,-1.44 1.25,-2.41 2.69,-2.02 1.44,0.38 1.83,3.18 1.83,3.18"
   id="path212" />




<path
   class="st6"
   d="m 177.07668,170.00501 c 0,0 0.29,2.86 -0.86,4.86 -1.14,2 -2,2.95 -4.67,3.81 -2.67,0.86 -4.38,2.09 -5.14,2.86"
   id="path222" />


<g
   id="g5142"
   transform="translate(-163.99936,-172.73215)"><g
     id="g5224"
     transform="matrix(1.2691797,0,0,1.0204442,-151.37378,-20.5073)"><path
       class="st8"
       d="m 498.80227,373.34933 c 0,0 44.97835,118.93167 44.97835,122.91522 0,3.98355 -50.00594,12.62143 -56.12002,10.62966 -6.11409,-1.99178 -36.24587,-14.83224 -36.24587,-19.26754 0,-1.99177 36.49556,-0.4449 62.01141,-0.4449 7.63924,0 13.32142,0 13.53737,-0.66392 0.21595,-0.66393 -26.64284,-75.74228 -26.64284,-75.74228 z"
       id="path132" /><polygon
       class="st8"
       points="487.52,209.59 489.57,400.2 541.35,453.8 547.41,452.59 544.99,142.51 539.54,141 "
       id="polygon134"
       transform="matrix(0.88867851,0,0,0.68445939,22.474379,180.68086)" /><line
       class="st8"
       x1="503.56046"
       y1="491.28851"
       x2="501.95197"
       y2="277.18964"
       id="line136" /><polygon
       class="st2"
       points="537.65,403.58 493.36,372.94 490.85,213.6 535.43,156.49 "
       id="polygon138"
       transform="matrix(0.88867851,0,0,0.68445939,22.474379,180.68086)" /></g></g><g
   id="g2458"
   transform="matrix(0.81897397,0,0,0.95441154,-243.33459,-65.417627)"><path
     class="st1"
     d="m 475.57648,268.83651 -87.04,26.13 2.38271,3.89801 93.29729,18.74199 77.84,-31.28 -0.18,-3.5 c 0,0 -86.12,-12.88 -86.3,-13.99 z"
     id="path6-2"
     style="fill:#ffffff;stroke:#031f43;stroke-width:2;stroke-linecap:round;stroke-linejoin:round;stroke-miterlimit:10"
     sodipodi:nodetypes="ccccccc" /><polygon
     class="st2"
     points="368.96,423.02 307.19,443.66 370.62,454.58 432.99,433.04 "
     id="polygon8"
     style="fill:#031f43"
     transform="translate(109.72648,-149.59349)" /></g><path
   class="st1"
   d="m 104.02599,41.829613 c 0,0 5.72,-0.57 7.28,2.91"
   id="path86"
   style="fill:none;stroke:#031f43;stroke-width:2;stroke-linecap:round;stroke-linejoin:round;stroke-miterlimit:10" /><path
   class="st1"
   d="m 122.74599,49.469613 c 0,0 4.68,-2.5 7.64,2.18"
   id="path88"
   style="fill:none;stroke:#031f43;stroke-width:2;stroke-linecap:round;stroke-linejoin:round;stroke-miterlimit:10" /><path
   class="st1"
   d="m 124.50599,48.849613 c 0,0 -0.52,2.44 1.56,3.59 2.08,1.15 2.7,-2.03 2.7,-2.03"
   id="path92"
   style="fill:none;stroke:#031f43;stroke-width:2;stroke-linecap:round;stroke-linejoin:round;stroke-miterlimit:10" /><g
   inkscape:groupmode="layer"
   id="layer2"
   inkscape:label="1"
   style="display:inline"
   transform="translate(-177.20332,-184.15499)"><path
     class="st7"
     d="m 330.01884,394.54121 -0.70432,-6.26094 8.64017,-53.46614 c 0,0 1.02372,-1.11666 2.75176,-0.74444 1.72803,0.37222 1.79355,1.04031 1.79355,1.04031 l -8.44362,54.14377 z"
     id="path124"
     style="fill:#f3b63f;fill-opacity:1;stroke:#031f43;stroke-width:1.76821;stroke-linecap:round;stroke-linejoin:round" /></g><g
   inkscape:groupmode="layer"
   id="layer1"
   inkscape:label="2"
   style="display:inline"
   transform="translate(-177.20332,-184.15499)"><path
     class="st1"
     d="m 350.95,330.65 c 0,0 -6.76,3.14 -8.38,6.28 -1.1,2.13 -0.67,4.09 2,3.62 2.67,-0.48 9.52,-2.19 11.14,-4.38 1.62,-2.19 0.95,-4.57 -0.29,-5.14 -1.23,-0.58 -4.47,-0.38 -4.47,-0.38 z"
     id="path214" /><path
     class="st1"
     d="m 350.09,339.98 c 0,0 -10.66,4.19 -12.28,7.33 -1.1,2.13 0.19,4.95 2.86,4.47 2.67,-0.48 12.57,-4.09 14.19,-6.28 1.62,-2.19 0.95,-4.57 -0.29,-5.14 -1.24,-0.57 -4.48,-0.38 -4.48,-0.38 z"
     id="path216" /><path
     class="st1"
     d="m 337.81,351.02 c 0,0 -2.67,0.86 -2.86,2.76 -0.19,1.9 0.95,3.14 3.71,3.05 2.76,-0.09 13.14,-1.62 15.61,-2.67 2.48,-1.05 3.24,-5.81 2,-6.47 -1.24,-0.67 -3.24,-0.95 -3.24,-0.95 0,0 -6.57,3.43 -9.71,4.28 -3.14,0.86 -4.47,0.95 -4.67,0.48 -0.17,-0.48 -0.84,-0.48 -0.84,-0.48 z"
     id="path218" /><path
     class="st6"
     d="m 336,356.45 c 0,0 -1.81,0.67 -1.62,2.48 0.19,1.81 2.48,2.38 6.38,2.86"
     id="path220"
     style="display:inline" /><path
     style="fill:#ffffff;stroke-width:0.0625962"
     d="m 338.78551,360.53362 c -2.19164,-0.33819 -3.54839,-0.77359 -3.97286,-1.2749 -0.22597,-0.26688 -0.24787,-0.71295 -0.0516,-1.05028 0.16168,-0.27783 0.64078,-0.61271 1.18,-0.82481 l 0.36627,-0.14408 0.51936,0.0988 c 0.66185,0.12592 1.96873,0.26839 2.85327,0.31103 l 0.68757,0.0331 -0.0437,0.12499 c -0.024,0.0688 -0.19571,0.70008 -0.38139,1.40294 -0.18551,0.70287 -0.36352,1.31256 -0.39534,1.35484 -0.0525,0.0698 -0.12355,0.0668 -0.76148,-0.0317 z"
     id="path7759" /></g></svg>
