<svg width="1067" height="61" viewBox="0 0 1067 61" fill="none" xmlns="http://www.w3.org/2000/svg">
<path d="M246.864 31.8532C117.508 75.5847 0.899202 -9.45101 1.00052 57.306L1066.96 60.335C1022.99 60.2101 972.993 30.5509 962.53 26.1944C944.633 18.7425 914.026 6.83209 881.542 3.0625C840.938 -1.6495 812.448 2.43475 789.149 5.31691C775.065 7.0592 728.598 20.4661 708.802 32.4183C689.006 44.3706 677.565 47.7076 650.087 47.6059C628.105 47.5245 596.291 36.4474 580.375 32.2612C536.598 23.193 541.518 52.2859 492.789 47.4135C431.879 41.323 376.22 -11.8783 246.864 31.8532Z" fill="#F3B63F" stroke="#F3B63F"/>
</svg>
